<svg width="181" height="133" viewBox="0 0 181 133" fill="none" xmlns="http://www.w3.org/2000/svg">
<path d="M32 0H172.674V133H32V0Z" fill="url(#paint0_radial_170_2)"/>
<path d="M67.6705 47.625H52.7386C52.4659 45.6932 51.9091 43.9773 51.0682 42.4773C50.2273 40.9545 49.1477 39.6591 47.8295 38.5909C46.5114 37.5227 44.9886 36.7045 43.2614 36.1364C41.5568 35.5682 39.7045 35.2841 37.7045 35.2841C34.0909 35.2841 30.9432 36.1818 28.2614 37.9773C25.5795 39.75 23.5 42.3409 22.0227 45.75C20.5455 49.1364 19.8068 53.25 19.8068 58.0909C19.8068 63.0682 20.5455 67.25 22.0227 70.6364C23.5227 74.0227 25.6136 76.5795 28.2955 78.3068C30.9773 80.0341 34.0795 80.8977 37.6023 80.8977C39.5795 80.8977 41.4091 80.6364 43.0909 80.1136C44.7955 79.5909 46.3068 78.8295 47.625 77.8295C48.9432 76.8068 50.0341 75.5682 50.8977 74.1136C51.7841 72.6591 52.3977 71 52.7386 69.1364L67.6705 69.2045C67.2841 72.4091 66.3182 75.5 64.7727 78.4773C63.25 81.4318 61.1932 84.0795 58.6023 86.4205C56.0341 88.7386 52.9659 90.5795 49.3977 91.9432C45.8523 93.2841 41.8409 93.9545 37.3636 93.9545C31.1364 93.9545 25.5682 92.5455 20.6591 89.7273C15.7727 86.9091 11.9091 82.8295 9.06818 77.4886C6.25 72.1477 4.84091 65.6818 4.84091 58.0909C4.84091 50.4773 6.27273 44 9.13636 38.6591C12 33.3182 15.8864 29.25 20.7955 26.4545C25.7045 23.6364 31.2273 22.2273 37.3636 22.2273C41.4091 22.2273 45.1591 22.7955 48.6136 23.9318C52.0909 25.0682 55.1705 26.7273 57.8523 28.9091C60.5341 31.0682 62.7159 33.7159 64.3977 36.8523C66.1023 39.9886 67.1932 43.5795 67.6705 47.625ZM78.2557 93V23.1818H93.017V53.9659H93.9375L119.062 23.1818H136.756L110.847 54.4432L137.062 93H119.403L100.278 64.2955L93.017 73.1591V93H78.2557Z" fill="white"/>
<defs>
<radialGradient id="paint0_radial_170_2" cx="0" cy="0" r="1" gradientUnits="userSpaceOnUse" gradientTransform="translate(32 16.4209) rotate(40.8215) scale(163.07 87.7989)">
<stop stop-color="#F19595"/>
<stop offset="0.499028" stop-color="#BA8B9F"/>
<stop offset="0.776688" stop-color="#99A4C9"/>
<stop offset="1" stop-color="#C1CCF2"/>
</radialGradient>
</defs>
</svg>
