<svg width="255" height="859" viewBox="0 0 255 859" fill="none" xmlns="http://www.w3.org/2000/svg">
<path d="M174.261 632.648L174.261 619.898C176.352 619.534 178.205 618.864 179.818 617.886C181.455 616.909 182.841 615.693 183.977 614.239C185.114 612.784 185.966 611.125 186.534 609.261C187.125 607.42 187.42 605.432 187.42 603.295C187.42 599.5 186.466 596.136 184.557 593.205C182.67 590.273 179.898 587.977 176.239 586.318C172.602 584.659 168.159 583.83 162.909 583.83C157.568 583.83 153.068 584.659 149.409 586.318C145.773 588 143.023 590.295 141.159 593.205C139.318 596.136 138.398 599.489 138.398 603.261C138.398 605.352 138.67 607.307 139.216 609.125C139.784 610.966 140.614 612.614 141.705 614.068C142.795 615.545 144.136 616.784 145.727 617.784C147.318 618.807 149.136 619.511 151.182 619.898L151.114 632.648C147.795 632.17 144.682 631.136 141.773 629.545C138.864 627.977 136.295 625.92 134.068 623.375C131.864 620.83 130.136 617.852 128.886 614.443C127.659 611.034 127.045 607.25 127.045 603.091C127.045 596.955 128.466 591.477 131.307 586.659C134.148 581.841 138.25 578.045 143.614 575.273C148.977 572.5 155.409 571.114 162.909 571.114C170.432 571.114 176.864 572.511 182.205 575.307C187.568 578.102 191.67 581.909 194.511 586.727C197.352 591.545 198.773 597 198.773 603.091C198.773 606.977 198.227 610.591 197.136 613.932C196.045 617.273 194.443 620.25 192.33 622.864C190.239 625.477 187.67 627.625 184.625 629.307C181.602 631.011 178.148 632.125 174.261 632.648ZM126.943 658.753C126.943 655.435 127.534 652.446 128.716 649.787C129.92 647.151 131.693 645.06 134.034 643.514C136.375 641.991 139.261 641.23 142.693 641.23C145.648 641.23 148.091 641.776 150.023 642.866C151.955 643.957 153.5 645.446 154.659 647.332C155.818 649.219 156.693 651.344 157.284 653.707C157.898 656.094 158.341 658.56 158.614 661.105C158.932 664.173 159.216 666.662 159.466 668.571C159.739 670.48 160.148 671.866 160.693 672.73C161.261 673.616 162.136 674.06 163.318 674.06L163.523 674.06C166.091 674.06 168.08 673.298 169.489 671.776C170.898 670.253 171.602 668.06 171.602 665.196C171.602 662.173 170.943 659.776 169.625 658.003C168.307 656.253 166.75 655.071 164.955 654.457L166.591 642.935C169.773 643.844 172.432 645.344 174.568 647.435C176.727 649.526 178.341 652.082 179.409 655.105C180.5 658.128 181.045 661.469 181.045 665.128C181.045 667.651 180.75 670.162 180.159 672.662C179.568 675.162 178.591 677.446 177.227 679.514C175.886 681.582 174.057 683.241 171.739 684.491C169.42 685.764 166.523 686.401 163.045 686.401L128 686.401L128 674.537L135.193 674.537L135.193 674.128C133.739 673.378 132.375 672.321 131.102 670.957C129.852 669.616 128.841 667.923 128.068 665.878C127.318 663.855 126.943 661.48 126.943 658.753ZM136.011 661.957C136.011 664.435 136.5 666.582 137.477 668.401C138.477 670.219 139.795 671.616 141.432 672.594C143.068 673.594 144.852 674.094 146.784 674.094L152.955 674.094C152.636 673.707 152.341 673.048 152.068 672.116C151.795 671.207 151.557 670.185 151.352 669.048C151.148 667.912 150.966 666.787 150.807 665.673C150.648 664.56 150.511 663.594 150.398 662.776C150.148 660.935 149.739 659.287 149.17 657.832C148.602 656.378 147.807 655.23 146.784 654.389C145.784 653.548 144.489 653.128 142.898 653.128C140.625 653.128 138.909 653.957 137.75 655.616C136.591 657.276 136.011 659.389 136.011 661.957ZM144.432 710.06L159.33 710.026L159.33 712.003L180.364 730.821L180.364 745.241L154.591 722.094L154.591 719.537L144.432 710.06ZM128 698.81L197.818 698.81L197.818 711.151L128 711.151L128 698.81ZM128 731.673L151.83 714.628L160.523 722.946L128 746.435L128 731.673ZM126.977 774.491C126.977 769.241 128.068 764.707 130.25 760.889C132.455 757.094 135.568 754.173 139.591 752.128C143.636 750.082 148.398 749.06 153.875 749.06C159.261 749.06 163.989 750.082 168.057 752.128C172.148 754.196 175.33 757.082 177.602 760.787C179.898 764.491 181.045 768.844 181.045 773.844C181.045 777.071 180.523 780.116 179.477 782.98C178.455 785.866 176.864 788.412 174.705 790.616C172.545 792.844 169.795 794.594 166.455 795.866C163.136 797.139 159.182 797.776 154.591 797.776L150.807 797.776L150.807 754.855L159.125 754.855L159.125 785.946C161.489 785.923 163.591 785.412 165.432 784.412C167.295 783.412 168.761 782.014 169.83 780.219C170.898 778.446 171.432 776.378 171.432 774.014C171.432 771.491 170.818 769.276 169.591 767.366C168.386 765.457 166.795 763.969 164.818 762.901C162.864 761.855 160.716 761.321 158.375 761.298L151.114 761.298C148.068 761.298 145.455 761.855 143.273 762.969C141.114 764.082 139.455 765.639 138.295 767.639C137.159 769.639 136.591 771.98 136.591 774.662C136.591 776.457 136.841 778.082 137.341 779.537C137.864 780.991 138.625 782.253 139.625 783.321C140.625 784.389 141.864 785.196 143.341 785.741L142.045 797.264C139 796.537 136.341 795.151 134.068 793.105C131.818 791.082 130.068 788.491 128.818 785.332C127.591 782.173 126.977 778.56 126.977 774.491ZM126.977 831.398C126.977 826.148 128.068 821.614 130.25 817.795C132.455 814 135.568 811.08 139.591 809.034C143.636 806.989 148.398 805.966 153.875 805.966C159.261 805.966 163.989 806.989 168.057 809.034C172.148 811.102 175.33 813.989 177.602 817.693C179.898 821.398 181.045 825.75 181.045 830.75C181.045 833.977 180.523 837.023 179.477 839.886C178.455 842.773 176.864 845.318 174.705 847.523C172.545 849.75 169.795 851.5 166.455 852.773C163.136 854.045 159.182 854.682 154.591 854.682L150.807 854.682L150.807 811.761L159.125 811.761L159.125 842.852C161.489 842.83 163.591 842.318 165.432 841.318C167.295 840.318 168.761 838.92 169.83 837.125C170.898 835.352 171.432 833.284 171.432 830.92C171.432 828.398 170.818 826.182 169.591 824.273C168.386 822.364 166.795 820.875 164.818 819.807C162.864 818.761 160.716 818.227 158.375 818.205L151.114 818.205C148.068 818.205 145.455 818.761 143.273 819.875C141.114 820.989 139.455 822.545 138.295 824.545C137.159 826.545 136.591 828.886 136.591 831.568C136.591 833.364 136.841 834.989 137.341 836.443C137.864 837.898 138.625 839.159 139.625 840.227C140.625 841.295 141.864 842.102 143.341 842.648L142.045 854.17C139 853.443 136.341 852.057 134.068 850.011C131.818 847.989 130.068 845.398 128.818 842.239C127.591 839.08 126.977 835.466 126.977 831.398Z" fill="#919CC2"/>
<path d="M140 596L127.5 596L127.5 92L140 92L140 596Z" fill="url(#paint0_linear_31_10)"/>
<path d="M6.88636 93V23.1818H19.5341V52.7386H51.8864V23.1818H64.5682V93H51.8864V63.3409H19.5341V93H6.88636ZM77.7784 93V40.6364H90.1193V93H77.7784ZM83.983 33.2045C82.0284 33.2045 80.3466 32.5568 78.9375 31.2614C77.5284 29.9432 76.8239 28.3636 76.8239 26.5227C76.8239 24.6591 77.5284 23.0795 78.9375 21.7841C80.3466 20.4659 82.0284 19.8068 83.983 19.8068C85.9602 19.8068 87.642 20.4659 89.0284 21.7841C90.4375 23.0795 91.142 24.6591 91.142 26.5227C91.142 28.3636 90.4375 29.9432 89.0284 31.2614C87.642 32.5568 85.9602 33.2045 83.983 33.2045ZM139.815 23.1818V93H127.168V23.1818H139.815ZM163.432 23.1818V30.1364C163.432 32.1364 163.045 34.2159 162.273 36.375C161.523 38.5114 160.489 40.5568 159.17 42.5114C157.852 44.4432 156.352 46.1023 154.67 47.4886L148.943 43.7727C150.193 41.8864 151.284 39.8523 152.216 37.6705C153.148 35.4659 153.614 32.9773 153.614 30.2045V23.1818H163.432ZM171.435 93V40.6364H183.23V49.5341H183.844C184.935 46.5341 186.741 44.1932 189.264 42.5114C191.787 40.8068 194.798 39.9545 198.298 39.9545C201.844 39.9545 204.832 40.8182 207.264 42.5455C209.719 44.25 211.446 46.5795 212.446 49.5341H212.991C214.151 46.625 216.105 44.3068 218.855 42.5795C221.628 40.8295 224.912 39.9545 228.707 39.9545C233.526 39.9545 237.457 41.4773 240.503 44.5227C243.548 47.5682 245.071 52.0114 245.071 57.8523V93H232.696V59.7614C232.696 56.5114 231.832 54.1364 230.105 52.6364C228.378 51.1136 226.264 50.3523 223.764 50.3523C220.787 50.3523 218.457 51.2841 216.776 53.1477C215.116 54.9886 214.287 57.3864 214.287 60.3409V93H202.185V59.25C202.185 56.5455 201.366 54.3864 199.73 52.7727C198.116 51.1591 196.003 50.3523 193.389 50.3523C191.616 50.3523 190.003 50.8068 188.548 51.7159C187.094 52.6023 185.935 53.8636 185.071 55.5C184.207 57.1136 183.776 59 183.776 61.1591V93H171.435Z" fill="white"/>
<defs>
<linearGradient id="paint0_linear_31_10" x1="133.75" y1="596" x2="133.75" y2="92" gradientUnits="userSpaceOnUse">
<stop stop-color="#919CC2"/>
<stop offset="0.25" stop-color="#919CC2"/>
<stop offset="0.557292" stop-color="#DE5D5D"/>
<stop offset="0.859375" stop-color="white"/>
</linearGradient>
</defs>
</svg>
